<?xml version="1.0" encoding="utf-8"?>
<!-- Generator: Adobe Illustrator 24.2.3, SVG Export Plug-In . SVG Version: 6.00 Build 0)  -->
<svg version="1.1" xmlns="http://www.w3.org/2000/svg" x="0px" y="0px"
     viewBox="0 0 792 612" style="enable-background:new 0 0 792 612;" xml:space="preserve">
<style type="text/css">
	.st0{opacity:0.7;}
	.st1{fill:#6566AF;}
	.st2{fill:url(#SVGID_1_);}
	.st3{fill:url(#SVGID_2_);}
	.st4{fill:url(#SVGID_3_);}
	.st5{fill:url(#SVGID_4_);}
	.st6{fill:url(#SVGID_5_);}
	.st7{fill:url(#SVGID_6_);}
	.st8{fill:url(#SVGID_7_);}
	.st9{fill:#22205F;}
	.st10{fill:#93C94F;}
</style>
  <g id="back">
</g>
  <g id="purple">
</g>
  <g id="shadow_right" class="st0">
</g>
  <g id="shadow_middle" class="st0">
</g>
  <g id="shadow_left" class="st0">
</g>
  <g id="green">
	<g>
		<path class="st1" d="M393.9,180.9c-11.2,6.2-16.3,16.8-18.2,20.2c-7.3,16.3-5.9,69.4-41.8,93.4l2.8,3.6l-0.2,9.7
			c11.1,0.2,19.2,2.3,27.8-1.1c39.3-25.7,30.8-108.4,60-110.2l-6.7-3.7l-9-10.6L393.9,180.9"/>
    <path class="st1" d="M481.2,265.3c-5.7,16.8-13.6,32.6-27.2,41.5c-6.8,5.1-18.3,1.3-29.4,1.1l1.8-9.7l-2.8-3.6
			c22.8-15.3,30.6-42.3,35.1-64.1C461.3,217.9,492,233.5,481.2,265.3z"/>
    <path class="st1" d="M305.2,180.9c-11.2,6.2-16.3,16.8-18.2,20.2c-7.3,16.3,13.3,73.7,19.2,52.9c8.2-28.4,12.5-56.3,29.3-57.4
			l-6.7-3.7l-9-10.6L305.2,180.9"/>
    <radialGradient id="SVGID_1_" cx="314.9079" cy="316.1584" r="173.1972" gradientUnits="userSpaceOnUse">
			<stop offset="0.8193" style="stop-color:#6566AF;stop-opacity:0"/>
      <stop offset="0.8698" style="stop-color:#434383;stop-opacity:0.3991"/>
      <stop offset="0.9189" style="stop-color:#2B2A68;stop-opacity:0.7872"/>
      <stop offset="0.9458" style="stop-color:#22205F"/>
		</radialGradient>
    <path class="st2" d="M393.9,180.9c-11.2,6.2-16.3,16.8-18.2,20.2c-7.3,16.3-5.9,69.4-41.8,93.4l2.8,3.6l-0.2,9.7
			c11.1,0.2,20,1.8,27.8-1.1c39.3-25.7,30.8-108.4,60-110.2l-6.7-3.7l-9-10.6L393.9,180.9"/>
    <linearGradient id="SVGID_2_" gradientUnits="userSpaceOnUse" x1="442.8579" y1="272.9645" x2="466.2838" y2="263.512">
			<stop offset="0.458" style="stop-color:#6566AF;stop-opacity:0"/>
      <stop offset="1" style="stop-color:#22205F"/>
		</linearGradient>
    <path class="st3" d="M481.2,265.3c-5.7,16.8-13.6,32.6-27.2,41.5c-6.8,5.1-18.3,1.3-29.4,1.1l1.8-9.7l-2.8-3.6
			c22.8-15.3,30.6-42.3,35.1-64.1C461.3,217.9,492,233.5,481.2,265.3z"/>
    <radialGradient id="SVGID_3_" cx="248.8214" cy="295.6774" r="135.3323" gradientUnits="userSpaceOnUse">
			<stop offset="0.8026" style="stop-color:#6566AF;stop-opacity:0"/>
      <stop offset="0.833" style="stop-color:#5F61A6;stop-opacity:0.1907"/>
      <stop offset="0.8713" style="stop-color:#525395;stop-opacity:0.4304"/>
      <stop offset="0.9137" style="stop-color:#3E3E7E;stop-opacity:0.6963"/>
      <stop offset="0.9588" style="stop-color:#242261;stop-opacity:0.9794"/>
      <stop offset="0.9621" style="stop-color:#22205F"/>
		</radialGradient>
    <path class="st4" d="M305.2,180.9c-11.2,6.2-16.3,16.8-18.2,20.2c-7.3,16.3,13.3,73.7,19.2,52.9c8.2-28.4,12.5-56.3,29.3-57.4
			l-6.7-3.7l-9-10.6L305.2,180.9"/>

    <radialGradient id="SVGID_4_" cx="370.2755" cy="226.933" r="52.1299" fx="391.4544" fy="229.6855"
                    gradientTransform="matrix(-0.5626 -0.8267 0.5858 -0.3987 445.659 623.519)"
                    gradientUnits="userSpaceOnUse">
			<stop offset="0.562" style="stop-color:#22205F"/>
      <stop offset="1" style="stop-color:#6566AF;stop-opacity:0"/>
		</radialGradient>
    <path class="st5" d="M393.9,180.9c-11.2,6.2-16.3,16.8-18.2,20.2l20.4,49c7.5-27,12.1-52.5,28.2-53.4l-6.7-3.7l-9-10.6
			L393.9,180.9"/>

    <radialGradient id="SVGID_5_" cx="397.0322" cy="223.7076" r="95.675" fx="359.7162" fy="225.8662"
                    gradientTransform="matrix(-0.5307 0.8476 -0.5933 -0.3715 740.4495 -29.7114)"
                    gradientUnits="userSpaceOnUse">
			<stop offset="0.8313" style="stop-color:#6566AF;stop-opacity:0"/>
      <stop offset="0.8582" style="stop-color:#5F61A6;stop-opacity:0.1907"/>
      <stop offset="0.8921" style="stop-color:#525395;stop-opacity:0.4304"/>
      <stop offset="0.9297" style="stop-color:#3E3E7E;stop-opacity:0.6963"/>
      <stop offset="0.9697" style="stop-color:#242261;stop-opacity:0.9794"/>
      <stop offset="0.9726" style="stop-color:#22205F"/>
		</radialGradient>
    <path class="st6" d="M393.9,180.9c-11.2,6.2-16.3,16.8-18.2,20.2c-7.3,16.3-5.9,69.4-41.8,93.4l2.8,3.6l-0.2,9.7
			c11.1,0.2,18.2,1.5,27.8-1.1c39.3-25.7,30.8-108.4,60-110.2l-6.7-3.7l-9-10.6L393.9,180.9"/>
    <radialGradient id="SVGID_6_" cx="482.8258" cy="231.3448" r="84.0223" gradientUnits="userSpaceOnUse">
			<stop offset="0.7648" style="stop-color:#6566AF;stop-opacity:0"/>
      <stop offset="0.8096" style="stop-color:#5F61A6;stop-opacity:0.1907"/>
      <stop offset="0.866" style="stop-color:#525395;stop-opacity:0.4304"/>
      <stop offset="0.9286" style="stop-color:#3E3E7E;stop-opacity:0.6963"/>
      <stop offset="0.9951" style="stop-color:#242261;stop-opacity:0.9794"/>
      <stop offset="1" style="stop-color:#22205F"/>
		</radialGradient>
    <path class="st7" d="M481.2,265.3c-5.7,16.8-13.6,32.6-27.2,41.5c-6.8,5.1-18.3,1.3-29.4,1.1l1.8-9.7l-2.8-3.6
			c22.8-15.3,30.6-42.3,35.1-64.1C461.3,217.9,492,233.5,481.2,265.3z"/>
    <radialGradient id="SVGID_7_" cx="261.9887" cy="229.9757" r="60.8718" gradientUnits="userSpaceOnUse">
			<stop offset="0.6589" style="stop-color:#22205F"/>
      <stop offset="0.7021" style="stop-color:#282766;stop-opacity:0.8074"/>
      <stop offset="0.7739" style="stop-color:#3B3B7A;stop-opacity:0.4877"/>
      <stop offset="0.8649" style="stop-color:#5C5DA1;stop-opacity:8.249444e-02"/>
      <stop offset="0.8834" style="stop-color:#6566AF;stop-opacity:0"/>
		</radialGradient>
    <path class="st8" d="M305.2,180.9c-11.2,6.2-16.3,16.8-18.2,20.2c-7.3,16.3,13.3,73.7,19.2,52.9c8.2-28.4,12.5-56.3,29.3-57.4
			l-6.7-3.7l-9-10.6L305.2,180.9"/>
    <g>
			<g>
				<path class="st9" d="M365.4,352.7c0-7.5-4.1-11.3-10.2-11.3c-6.2,0-10.3,3.9-10.3,11.3v22.8h-8.4v-22.8
					c0-7.5-4.1-11.3-10.2-11.3c-6.2,0-10.3,3.9-10.3,11.3v22.8h-8.5v-40.9h8.5v4.7c2.7-3.3,7.2-5.3,12.1-5.3
					c6.5,0,11.9,2.7,14.7,8.1c2.5-5,8.3-8.1,14.2-8.1c9.6,0,16.8,6,16.8,17.4v24.1h-8.4V352.7z"/>
        <path class="st9" d="M416.9,376.2c-11.7,0-20.4-8.3-20.4-21.1c0-12.8,8.3-21.1,20.4-21.1c11.6,0,19.9,8.1,19.9,20.1
					c0,1.4-0.1,2.7-0.3,4.2h-31.2c0.6,6.7,5.4,10.8,11.6,10.8c5.2,0,8.1-2.5,9.6-5.7h9.1C433.4,370.5,427,376.2,416.9,376.2z
					 M405.4,351.4H428c-0.1-6.3-5.1-10.3-11.4-10.3C410.9,341.1,406.3,345,405.4,351.4z"/>
        <path class="st9" d="M461.3,341.6h-4.8v-6.9h4.8v-10.2h8.5v10.2h9.9v6.9h-9.9v22.6c0,3,1.2,4.3,4.7,4.3h5.2v7h-6.7
					c-7.3,0-11.8-3-11.8-11.3V341.6z"/>
        <path class="st9" d="M518.9,334c6.9,0,11.6,3.3,14.2,6.6v-5.9h8.5v40.9H533v-6.1c-2.6,3.5-7.5,6.7-14.3,6.7
					c-10.6,0-19.1-8.7-19.1-21.3C499.6,342.3,508.1,334,518.9,334z M520.6,341.3c-6.3,0-12.4,4.7-12.4,13.6
					c0,8.8,6.1,13.9,12.4,13.9c6.4,0,12.4-5,12.4-13.8C533,346.3,527,341.3,520.6,341.3z"/>
			</g>
      <path class="st10" d="M215.4,180.9c27.9-14.5,70.8,0,86.8,30.9s27.8,89.4,62.2,94.9c-16.2,12.2-54.7,11.9-66.7-13.1
				C278.7,254,265.3,204.9,215.4,180.9z"/>
      <path class="st10" d="M305.1,180.9c27.9-14.5,70.8,0,86.8,30.9s27.8,89.4,62.2,94.9c-16.2,12.2-54.7,11.9-66.7-13.1
				C368.4,254,355,204.9,305.1,180.9z"/>
      <path class="st10" d="M393.9,180.9c27.9-14.5,70.8,0,86.8,30.9s27.4,89.3,61.9,94.8c-15,12.5-54.4,12-66.3-13
				C457.2,254,443.8,204.9,393.9,180.9z"/>
		</g>
	</g>
</g>
  <g id="Logo_on_Dark">
</g>
  <g id="text">
</g>
  <g id="Color_palatte">
</g>
</svg>
