<?xml version="1.0" encoding="utf-8"?>
<!-- Generator: Adobe Illustrator 24.2.3, SVG Export Plug-In . SVG Version: 6.00 Build 0)  -->
<svg version="1.1" id="Layer_1" xmlns="http://www.w3.org/2000/svg" x="0px"
     y="0px"
     viewBox="0 0 792 612" style="enable-background:new 0 0 792 612;" xml:space="preserve">
<style type="text/css">
	.st0{opacity:0.7;}
	.st1{fill:#FFFFFF;}
	.st2{fill:#91C84F;}
</style>
  <g id="back">
</g>
  <g id="purple">
</g>
  <g id="shadow_right" class="st0">
</g>
  <g id="shadow_middle" class="st0">
</g>
  <g id="shadow_left" class="st0">
</g>
  <g id="Logo_on_Dark">
</g>
  <g id="text">
</g>
  <g id="Color_palatte">
</g>
  <g>
	<path class="st1" d="M393.8,182.2c-11.2,6.2-16.2,16.7-18.1,20.1c-7.3,16.2-5.9,69.1-41.6,93.1l2.8,3.6l-0.2,9.6
		c11,0.2,19.1,2.3,27.7-1.1c39.1-25.6,30.7-108,59.7-109.7l-6.7-3.7l-9-10.6L393.8,182.2"/>
    <path class="st1" d="M480.7,266.2c-5.7,16.8-13.5,32.4-27.1,41.3c-6.8,5.1-18.2,1.3-29.2,1.1l1.8-9.7l-2.8-3.6
		c22.7-15.2,30.4-42.1,34.9-63.9C460.9,219,491.4,234.6,480.7,266.2z"/>
    <path class="st1" d="M305.4,182.2c-11.2,6.2-16.2,16.7-18.1,20.1c-7.3,16.2,13.2,73.4,19.2,52.7c8.1-28.3,12.4-56.1,29.2-57.1
		l-6.7-3.7l-9-10.6L305.4,182.2"/>
    <g>
		<g>
			<path class="st1" d="M365.3,353.3c0-7.5-4.1-11.3-10.2-11.3c-6.2,0-10.3,3.8-10.3,11.3V376h-8.4v-22.8c0-7.5-4.1-11.3-10.2-11.3
				c-6.2,0-10.3,3.8-10.3,11.3V376h-8.4v-40.7h8.4v4.7c2.7-3.3,7.2-5.3,12-5.3c6.4,0,11.8,2.7,14.6,8.1c2.5-5,8.3-8.1,14.2-8.1
				c9.5,0,16.8,6,16.8,17.4v24h-8.4V353.3z"/>
      <path class="st1" d="M416.7,376.7c-11.7,0-20.3-8.3-20.3-21.1c0-12.8,8.3-21,20.3-21c11.6,0,19.8,8.1,19.8,20
				c0,1.4-0.1,2.7-0.3,4.1h-31.1c0.6,6.7,5.4,10.8,11.6,10.8c5.2,0,8.1-2.5,9.6-5.7h9.1C433.1,371,426.7,376.7,416.7,376.7z
				 M405.2,352h22.5c-0.1-6.3-5.1-10.3-11.4-10.3C410.6,341.7,406,345.6,405.2,352z"/>
      <path class="st1" d="M460.9,342.2h-4.8v-6.9h4.8v-10.1h8.5v10.1h9.9v6.9h-9.9v22.5c0,3,1.2,4.3,4.7,4.3h5.2v7h-6.7
				c-7.2,0-11.8-3-11.8-11.3V342.2z"/>
      <path class="st1" d="M518.2,334.6c6.9,0,11.6,3.3,14.1,6.6v-5.9h8.5V376h-8.5V370c-2.6,3.5-7.5,6.7-14.3,6.7
				c-10.6,0-19.1-8.6-19.1-21.2S507.5,334.6,518.2,334.6z M520,342c-6.3,0-12.3,4.7-12.3,13.5s6.1,13.9,12.3,13.9
				c6.4,0,12.3-5,12.3-13.7C532.3,346.9,526.4,342,520,342z"/>
		</g>
      <path class="st2" d="M215.9,182.2c27.8-14.4,70.6,0,86.5,30.8c15.9,30.8,27.7,89.1,61.9,94.5c-16.1,12.1-54.5,11.8-66.4-13
			C278.9,255,265.6,206.1,215.9,182.2z"/>
      <path class="st2" d="M305.3,182.2c27.8-14.4,70.6,0,86.5,30.8c15.9,30.8,27.7,89.1,61.9,94.5c-16.1,12.1-54.5,11.8-66.4-13
			C368.3,255,355,206.1,305.3,182.2z"/>
      <path class="st2" d="M393.8,182.2c27.8-14.4,70.6,0,86.5,30.8c15.9,30.8,27.3,89,61.6,94.4c-14.9,12.4-54.2,11.9-66.1-12.9
			C456.8,255,443.5,206.1,393.8,182.2z"/>
	</g>
</g>
</svg>
